<mxfile host="app.diagrams.net" modified="2024-04-30T21:00:30.502Z" agent="Mozilla/5.0 (Windows NT 10.0; Win64; x64) AppleWebKit/537.36 (KHTML, like Gecko) Chrome/124.0.0.0 Safari/537.36" etag="CzKqp3Kbl2p3HA8X_sdb" version="24.3.1" type="device">
  <diagram name="Página-1" id="BPZYwpUaBo1m4roUAAAN">
    <mxGraphModel dx="1434" dy="780" grid="1" gridSize="10" guides="1" tooltips="1" connect="1" arrows="1" fold="1" page="1" pageScale="1" pageWidth="850" pageHeight="1100" math="0" shadow="0">
      <root>
        <mxCell id="0" />
        <mxCell id="1" parent="0" />
        <mxCell id="5ukBIivrScnrmxDE7Drp-25" style="edgeStyle=orthogonalEdgeStyle;rounded=0;orthogonalLoop=1;jettySize=auto;html=1;exitX=0.5;exitY=1;exitDx=0;exitDy=0;entryX=0.5;entryY=0;entryDx=0;entryDy=0;" parent="1" source="5ukBIivrScnrmxDE7Drp-3" target="5ukBIivrScnrmxDE7Drp-5" edge="1">
          <mxGeometry relative="1" as="geometry" />
        </mxCell>
        <mxCell id="5ukBIivrScnrmxDE7Drp-26" style="edgeStyle=orthogonalEdgeStyle;rounded=0;orthogonalLoop=1;jettySize=auto;html=1;exitX=1;exitY=0.5;exitDx=0;exitDy=0;entryX=0.5;entryY=0;entryDx=0;entryDy=0;" parent="1" source="5ukBIivrScnrmxDE7Drp-3" target="5ukBIivrScnrmxDE7Drp-6" edge="1">
          <mxGeometry relative="1" as="geometry" />
        </mxCell>
        <mxCell id="5ukBIivrScnrmxDE7Drp-3" value="all" style="rhombus;whiteSpace=wrap;html=1;" parent="1" vertex="1">
          <mxGeometry x="60" y="120" width="80" height="80" as="geometry" />
        </mxCell>
        <mxCell id="zsAjYHbP9KHux3IzDVLU-23" style="edgeStyle=orthogonalEdgeStyle;rounded=0;orthogonalLoop=1;jettySize=auto;html=1;exitX=0.5;exitY=1;exitDx=0;exitDy=0;entryX=0.5;entryY=0;entryDx=0;entryDy=0;" edge="1" parent="1" source="5ukBIivrScnrmxDE7Drp-5" target="zsAjYHbP9KHux3IzDVLU-2">
          <mxGeometry relative="1" as="geometry" />
        </mxCell>
        <mxCell id="5ukBIivrScnrmxDE7Drp-5" value="Realizar web scraping del sitio web objetivo y almacenar los datos" style="rounded=0;whiteSpace=wrap;html=1;" parent="1" vertex="1">
          <mxGeometry x="40" y="220" width="120" height="60" as="geometry" />
        </mxCell>
        <mxCell id="5ukBIivrScnrmxDE7Drp-27" style="edgeStyle=orthogonalEdgeStyle;rounded=0;orthogonalLoop=1;jettySize=auto;html=1;exitX=0.5;exitY=1;exitDx=0;exitDy=0;entryX=0.5;entryY=0;entryDx=0;entryDy=0;" parent="1" source="5ukBIivrScnrmxDE7Drp-6" target="5ukBIivrScnrmxDE7Drp-7" edge="1">
          <mxGeometry relative="1" as="geometry" />
        </mxCell>
        <mxCell id="5ukBIivrScnrmxDE7Drp-28" style="edgeStyle=orthogonalEdgeStyle;rounded=0;orthogonalLoop=1;jettySize=auto;html=1;exitX=1;exitY=0.5;exitDx=0;exitDy=0;entryX=0.5;entryY=0;entryDx=0;entryDy=0;" parent="1" source="5ukBIivrScnrmxDE7Drp-6" target="5ukBIivrScnrmxDE7Drp-9" edge="1">
          <mxGeometry relative="1" as="geometry" />
        </mxCell>
        <mxCell id="5ukBIivrScnrmxDE7Drp-6" value="web_scrapping" style="rhombus;whiteSpace=wrap;html=1;" parent="1" vertex="1">
          <mxGeometry x="190" y="210" width="80" height="80" as="geometry" />
        </mxCell>
        <mxCell id="zsAjYHbP9KHux3IzDVLU-30" style="edgeStyle=orthogonalEdgeStyle;rounded=0;orthogonalLoop=1;jettySize=auto;html=1;exitX=0.5;exitY=1;exitDx=0;exitDy=0;entryX=0.5;entryY=0;entryDx=0;entryDy=0;" edge="1" parent="1" source="5ukBIivrScnrmxDE7Drp-7" target="zsAjYHbP9KHux3IzDVLU-10">
          <mxGeometry relative="1" as="geometry" />
        </mxCell>
        <mxCell id="5ukBIivrScnrmxDE7Drp-7" value="&amp;nbsp;Realizar web scraping del sitio web objetivo y almacenar los datos" style="rounded=0;whiteSpace=wrap;html=1;" parent="1" vertex="1">
          <mxGeometry x="170" y="310" width="120" height="60" as="geometry" />
        </mxCell>
        <mxCell id="5ukBIivrScnrmxDE7Drp-29" style="edgeStyle=orthogonalEdgeStyle;rounded=0;orthogonalLoop=1;jettySize=auto;html=1;exitX=0.5;exitY=1;exitDx=0;exitDy=0;entryX=0.5;entryY=0;entryDx=0;entryDy=0;" parent="1" source="5ukBIivrScnrmxDE7Drp-9" target="5ukBIivrScnrmxDE7Drp-10" edge="1">
          <mxGeometry relative="1" as="geometry" />
        </mxCell>
        <mxCell id="5ukBIivrScnrmxDE7Drp-30" style="edgeStyle=orthogonalEdgeStyle;rounded=0;orthogonalLoop=1;jettySize=auto;html=1;exitX=1;exitY=0.5;exitDx=0;exitDy=0;entryX=0.5;entryY=0;entryDx=0;entryDy=0;" parent="1" source="5ukBIivrScnrmxDE7Drp-9" target="5ukBIivrScnrmxDE7Drp-11" edge="1">
          <mxGeometry relative="1" as="geometry" />
        </mxCell>
        <mxCell id="5ukBIivrScnrmxDE7Drp-9" value="escaneo_puertos" style="rhombus;whiteSpace=wrap;html=1;" parent="1" vertex="1">
          <mxGeometry x="325" y="300" width="80" height="80" as="geometry" />
        </mxCell>
        <mxCell id="zsAjYHbP9KHux3IzDVLU-29" style="edgeStyle=orthogonalEdgeStyle;rounded=0;orthogonalLoop=1;jettySize=auto;html=1;exitX=0.5;exitY=1;exitDx=0;exitDy=0;entryX=0.5;entryY=0;entryDx=0;entryDy=0;" edge="1" parent="1" source="5ukBIivrScnrmxDE7Drp-10" target="zsAjYHbP9KHux3IzDVLU-9">
          <mxGeometry relative="1" as="geometry" />
        </mxCell>
        <mxCell id="5ukBIivrScnrmxDE7Drp-10" value="Realizar escaneo de puertos del sitio web objetivo y almacenar los datos" style="rounded=0;whiteSpace=wrap;html=1;" parent="1" vertex="1">
          <mxGeometry x="305" y="400" width="120" height="60" as="geometry" />
        </mxCell>
        <mxCell id="5ukBIivrScnrmxDE7Drp-31" style="edgeStyle=orthogonalEdgeStyle;rounded=0;orthogonalLoop=1;jettySize=auto;html=1;exitX=0.5;exitY=1;exitDx=0;exitDy=0;entryX=0.5;entryY=0;entryDx=0;entryDy=0;" parent="1" source="5ukBIivrScnrmxDE7Drp-11" target="5ukBIivrScnrmxDE7Drp-12" edge="1">
          <mxGeometry relative="1" as="geometry" />
        </mxCell>
        <mxCell id="5ukBIivrScnrmxDE7Drp-32" style="edgeStyle=orthogonalEdgeStyle;rounded=0;orthogonalLoop=1;jettySize=auto;html=1;exitX=1;exitY=0.5;exitDx=0;exitDy=0;entryX=0.5;entryY=0;entryDx=0;entryDy=0;" parent="1" source="5ukBIivrScnrmxDE7Drp-11" target="5ukBIivrScnrmxDE7Drp-13" edge="1">
          <mxGeometry relative="1" as="geometry" />
        </mxCell>
        <mxCell id="5ukBIivrScnrmxDE7Drp-11" value="metadatos" style="rhombus;whiteSpace=wrap;html=1;" parent="1" vertex="1">
          <mxGeometry x="460" y="390" width="80" height="80" as="geometry" />
        </mxCell>
        <mxCell id="zsAjYHbP9KHux3IzDVLU-31" style="edgeStyle=orthogonalEdgeStyle;rounded=0;orthogonalLoop=1;jettySize=auto;html=1;exitX=0.5;exitY=1;exitDx=0;exitDy=0;entryX=0.5;entryY=0;entryDx=0;entryDy=0;" edge="1" parent="1" source="5ukBIivrScnrmxDE7Drp-12" target="zsAjYHbP9KHux3IzDVLU-11">
          <mxGeometry relative="1" as="geometry" />
        </mxCell>
        <mxCell id="5ukBIivrScnrmxDE7Drp-12" value="Obtener información de metadatos de los archivos en el sitio web objetivo y almacenar los datos" style="rounded=0;whiteSpace=wrap;html=1;" parent="1" vertex="1">
          <mxGeometry x="440" y="490" width="120" height="60" as="geometry" />
        </mxCell>
        <mxCell id="5ukBIivrScnrmxDE7Drp-33" style="edgeStyle=orthogonalEdgeStyle;rounded=0;orthogonalLoop=1;jettySize=auto;html=1;exitX=0.5;exitY=1;exitDx=0;exitDy=0;entryX=0.5;entryY=0;entryDx=0;entryDy=0;" parent="1" source="5ukBIivrScnrmxDE7Drp-13" target="5ukBIivrScnrmxDE7Drp-14" edge="1">
          <mxGeometry relative="1" as="geometry" />
        </mxCell>
        <mxCell id="5ukBIivrScnrmxDE7Drp-34" style="edgeStyle=orthogonalEdgeStyle;rounded=0;orthogonalLoop=1;jettySize=auto;html=1;exitX=1;exitY=0.5;exitDx=0;exitDy=0;entryX=0.5;entryY=0;entryDx=0;entryDy=0;" parent="1" source="5ukBIivrScnrmxDE7Drp-13" target="5ukBIivrScnrmxDE7Drp-15" edge="1">
          <mxGeometry relative="1" as="geometry" />
        </mxCell>
        <mxCell id="5ukBIivrScnrmxDE7Drp-13" value="hash" style="rhombus;whiteSpace=wrap;html=1;" parent="1" vertex="1">
          <mxGeometry x="590" y="480" width="80" height="80" as="geometry" />
        </mxCell>
        <mxCell id="zsAjYHbP9KHux3IzDVLU-32" style="edgeStyle=orthogonalEdgeStyle;rounded=0;orthogonalLoop=1;jettySize=auto;html=1;exitX=0.5;exitY=1;exitDx=0;exitDy=0;entryX=0.5;entryY=0;entryDx=0;entryDy=0;" edge="1" parent="1" source="5ukBIivrScnrmxDE7Drp-14" target="zsAjYHbP9KHux3IzDVLU-13">
          <mxGeometry relative="1" as="geometry" />
        </mxCell>
        <mxCell id="5ukBIivrScnrmxDE7Drp-14" value="&amp;nbsp;Calcular el hash de los archivos en el sitio web objetivo y almacenar los datos" style="rounded=0;whiteSpace=wrap;html=1;" parent="1" vertex="1">
          <mxGeometry x="570" y="580" width="120" height="60" as="geometry" />
        </mxCell>
        <mxCell id="5ukBIivrScnrmxDE7Drp-35" style="edgeStyle=orthogonalEdgeStyle;rounded=0;orthogonalLoop=1;jettySize=auto;html=1;exitX=0.5;exitY=1;exitDx=0;exitDy=0;entryX=0.5;entryY=0;entryDx=0;entryDy=0;" parent="1" source="5ukBIivrScnrmxDE7Drp-15" target="5ukBIivrScnrmxDE7Drp-16" edge="1">
          <mxGeometry relative="1" as="geometry" />
        </mxCell>
        <mxCell id="5ukBIivrScnrmxDE7Drp-36" style="edgeStyle=orthogonalEdgeStyle;rounded=0;orthogonalLoop=1;jettySize=auto;html=1;exitX=1;exitY=0.5;exitDx=0;exitDy=0;entryX=0.5;entryY=0;entryDx=0;entryDy=0;" parent="1" source="5ukBIivrScnrmxDE7Drp-15" target="5ukBIivrScnrmxDE7Drp-17" edge="1">
          <mxGeometry relative="1" as="geometry" />
        </mxCell>
        <mxCell id="5ukBIivrScnrmxDE7Drp-15" value="correos" style="rhombus;whiteSpace=wrap;html=1;" parent="1" vertex="1">
          <mxGeometry x="720" y="570" width="80" height="80" as="geometry" />
        </mxCell>
        <mxCell id="zsAjYHbP9KHux3IzDVLU-33" style="edgeStyle=orthogonalEdgeStyle;rounded=0;orthogonalLoop=1;jettySize=auto;html=1;exitX=0.5;exitY=1;exitDx=0;exitDy=0;entryX=0.5;entryY=0;entryDx=0;entryDy=0;" edge="1" parent="1" source="5ukBIivrScnrmxDE7Drp-16" target="zsAjYHbP9KHux3IzDVLU-14">
          <mxGeometry relative="1" as="geometry" />
        </mxCell>
        <mxCell id="5ukBIivrScnrmxDE7Drp-16" value="Realizar consulta a VirusTotal para obtener información sobre el sitio web objetivo y almacenar los datos" style="rounded=0;whiteSpace=wrap;html=1;" parent="1" vertex="1">
          <mxGeometry x="700" y="670" width="120" height="60" as="geometry" />
        </mxCell>
        <mxCell id="5ukBIivrScnrmxDE7Drp-37" style="edgeStyle=orthogonalEdgeStyle;rounded=0;orthogonalLoop=1;jettySize=auto;html=1;exitX=0.5;exitY=1;exitDx=0;exitDy=0;entryX=0.5;entryY=0;entryDx=0;entryDy=0;" parent="1" source="5ukBIivrScnrmxDE7Drp-17" target="5ukBIivrScnrmxDE7Drp-19" edge="1">
          <mxGeometry relative="1" as="geometry" />
        </mxCell>
        <mxCell id="5ukBIivrScnrmxDE7Drp-38" style="edgeStyle=orthogonalEdgeStyle;rounded=0;orthogonalLoop=1;jettySize=auto;html=1;exitX=1;exitY=0.5;exitDx=0;exitDy=0;entryX=0.5;entryY=0;entryDx=0;entryDy=0;" parent="1" source="5ukBIivrScnrmxDE7Drp-17" target="5ukBIivrScnrmxDE7Drp-18" edge="1">
          <mxGeometry relative="1" as="geometry" />
        </mxCell>
        <mxCell id="5ukBIivrScnrmxDE7Drp-17" value="api" style="rhombus;whiteSpace=wrap;html=1;" parent="1" vertex="1">
          <mxGeometry x="850" y="660" width="80" height="80" as="geometry" />
        </mxCell>
        <mxCell id="5ukBIivrScnrmxDE7Drp-39" style="edgeStyle=orthogonalEdgeStyle;rounded=0;orthogonalLoop=1;jettySize=auto;html=1;exitX=0.5;exitY=1;exitDx=0;exitDy=0;entryX=0.5;entryY=0;entryDx=0;entryDy=0;" parent="1" source="5ukBIivrScnrmxDE7Drp-18" target="5ukBIivrScnrmxDE7Drp-21" edge="1">
          <mxGeometry relative="1" as="geometry" />
        </mxCell>
        <mxCell id="5ukBIivrScnrmxDE7Drp-18" value="Acción no válida" style="rounded=0;whiteSpace=wrap;html=1;" parent="1" vertex="1">
          <mxGeometry x="960" y="760" width="120" height="60" as="geometry" />
        </mxCell>
        <mxCell id="zsAjYHbP9KHux3IzDVLU-34" style="edgeStyle=orthogonalEdgeStyle;rounded=0;orthogonalLoop=1;jettySize=auto;html=1;exitX=0.5;exitY=1;exitDx=0;exitDy=0;entryX=0.5;entryY=0;entryDx=0;entryDy=0;" edge="1" parent="1" source="5ukBIivrScnrmxDE7Drp-19" target="zsAjYHbP9KHux3IzDVLU-12">
          <mxGeometry relative="1" as="geometry" />
        </mxCell>
        <mxCell id="5ukBIivrScnrmxDE7Drp-19" value="Realizar acción con las API y almacenar los datos" style="rounded=0;whiteSpace=wrap;html=1;" parent="1" vertex="1">
          <mxGeometry x="830" y="760" width="120" height="60" as="geometry" />
        </mxCell>
        <mxCell id="5ukBIivrScnrmxDE7Drp-21" value="Fin" style="ellipse;whiteSpace=wrap;html=1;" parent="1" vertex="1">
          <mxGeometry x="960" y="920" width="120" height="80" as="geometry" />
        </mxCell>
        <mxCell id="zsAjYHbP9KHux3IzDVLU-1" style="edgeStyle=orthogonalEdgeStyle;rounded=0;orthogonalLoop=1;jettySize=auto;html=1;exitX=0.5;exitY=1;exitDx=0;exitDy=0;entryX=0.5;entryY=0;entryDx=0;entryDy=0;" edge="1" parent="1" source="5ukBIivrScnrmxDE7Drp-22" target="5ukBIivrScnrmxDE7Drp-3">
          <mxGeometry relative="1" as="geometry" />
        </mxCell>
        <mxCell id="5ukBIivrScnrmxDE7Drp-22" value="Inicio" style="ellipse;whiteSpace=wrap;html=1;" parent="1" vertex="1">
          <mxGeometry x="40" y="20" width="120" height="80" as="geometry" />
        </mxCell>
        <mxCell id="5ukBIivrScnrmxDE7Drp-45" value="No" style="text;html=1;align=center;verticalAlign=middle;whiteSpace=wrap;rounded=0;" parent="1" vertex="1">
          <mxGeometry x="120" y="130" width="60" height="30" as="geometry" />
        </mxCell>
        <mxCell id="5ukBIivrScnrmxDE7Drp-53" value="No" style="text;html=1;align=center;verticalAlign=middle;whiteSpace=wrap;rounded=0;" parent="1" vertex="1">
          <mxGeometry x="250" y="220" width="60" height="30" as="geometry" />
        </mxCell>
        <mxCell id="5ukBIivrScnrmxDE7Drp-55" value="No" style="text;html=1;align=center;verticalAlign=middle;whiteSpace=wrap;rounded=0;" parent="1" vertex="1">
          <mxGeometry x="390" y="310" width="60" height="30" as="geometry" />
        </mxCell>
        <mxCell id="5ukBIivrScnrmxDE7Drp-56" value="No" style="text;html=1;align=center;verticalAlign=middle;whiteSpace=wrap;rounded=0;" parent="1" vertex="1">
          <mxGeometry x="520" y="400" width="60" height="30" as="geometry" />
        </mxCell>
        <mxCell id="5ukBIivrScnrmxDE7Drp-57" value="No" style="text;html=1;align=center;verticalAlign=middle;whiteSpace=wrap;rounded=0;" parent="1" vertex="1">
          <mxGeometry x="660" y="490" width="60" height="30" as="geometry" />
        </mxCell>
        <mxCell id="5ukBIivrScnrmxDE7Drp-58" value="No" style="text;html=1;align=center;verticalAlign=middle;whiteSpace=wrap;rounded=0;" parent="1" vertex="1">
          <mxGeometry x="780" y="580" width="60" height="30" as="geometry" />
        </mxCell>
        <mxCell id="5ukBIivrScnrmxDE7Drp-59" value="No" style="text;html=1;align=center;verticalAlign=middle;whiteSpace=wrap;rounded=0;" parent="1" vertex="1">
          <mxGeometry x="910" y="670" width="60" height="30" as="geometry" />
        </mxCell>
        <mxCell id="zsAjYHbP9KHux3IzDVLU-24" style="edgeStyle=orthogonalEdgeStyle;rounded=0;orthogonalLoop=1;jettySize=auto;html=1;exitX=0.5;exitY=1;exitDx=0;exitDy=0;entryX=0.5;entryY=0;entryDx=0;entryDy=0;" edge="1" parent="1" source="zsAjYHbP9KHux3IzDVLU-2" target="zsAjYHbP9KHux3IzDVLU-3">
          <mxGeometry relative="1" as="geometry" />
        </mxCell>
        <mxCell id="zsAjYHbP9KHux3IzDVLU-2" value="Realizar escaneo de puertos del sitio web objetivo y almacenar los datos" style="rounded=0;whiteSpace=wrap;html=1;" vertex="1" parent="1">
          <mxGeometry x="40" y="300" width="120" height="60" as="geometry" />
        </mxCell>
        <mxCell id="zsAjYHbP9KHux3IzDVLU-25" style="edgeStyle=orthogonalEdgeStyle;rounded=0;orthogonalLoop=1;jettySize=auto;html=1;exitX=0.5;exitY=1;exitDx=0;exitDy=0;entryX=0.5;entryY=0;entryDx=0;entryDy=0;" edge="1" parent="1" source="zsAjYHbP9KHux3IzDVLU-3" target="zsAjYHbP9KHux3IzDVLU-4">
          <mxGeometry relative="1" as="geometry" />
        </mxCell>
        <mxCell id="zsAjYHbP9KHux3IzDVLU-3" value="Obtener información de metadatos de los archivos en el sitio web objetivo y almacenar los datos" style="rounded=0;whiteSpace=wrap;html=1;" vertex="1" parent="1">
          <mxGeometry x="40" y="380" width="120" height="60" as="geometry" />
        </mxCell>
        <mxCell id="zsAjYHbP9KHux3IzDVLU-26" style="edgeStyle=orthogonalEdgeStyle;rounded=0;orthogonalLoop=1;jettySize=auto;html=1;exitX=0.5;exitY=1;exitDx=0;exitDy=0;entryX=0.5;entryY=0;entryDx=0;entryDy=0;" edge="1" parent="1" source="zsAjYHbP9KHux3IzDVLU-4" target="zsAjYHbP9KHux3IzDVLU-5">
          <mxGeometry relative="1" as="geometry" />
        </mxCell>
        <mxCell id="zsAjYHbP9KHux3IzDVLU-4" value="Calcular el hash de los archivos en el sitio web objetivo y almacenar los datos" style="rounded=0;whiteSpace=wrap;html=1;" vertex="1" parent="1">
          <mxGeometry x="40" y="460" width="120" height="60" as="geometry" />
        </mxCell>
        <mxCell id="zsAjYHbP9KHux3IzDVLU-27" style="edgeStyle=orthogonalEdgeStyle;rounded=0;orthogonalLoop=1;jettySize=auto;html=1;exitX=0.5;exitY=1;exitDx=0;exitDy=0;entryX=0.5;entryY=0;entryDx=0;entryDy=0;" edge="1" parent="1" source="zsAjYHbP9KHux3IzDVLU-5" target="zsAjYHbP9KHux3IzDVLU-6">
          <mxGeometry relative="1" as="geometry" />
        </mxCell>
        <mxCell id="zsAjYHbP9KHux3IzDVLU-5" value="Realizar consulta a VirusTotal para obtener información sobre el sitio web objetivo y almacenar los datos" style="rounded=0;whiteSpace=wrap;html=1;" vertex="1" parent="1">
          <mxGeometry x="40" y="540" width="120" height="60" as="geometry" />
        </mxCell>
        <mxCell id="zsAjYHbP9KHux3IzDVLU-28" style="edgeStyle=orthogonalEdgeStyle;rounded=0;orthogonalLoop=1;jettySize=auto;html=1;exitX=0.5;exitY=1;exitDx=0;exitDy=0;entryX=0.5;entryY=0;entryDx=0;entryDy=0;" edge="1" parent="1" source="zsAjYHbP9KHux3IzDVLU-6" target="zsAjYHbP9KHux3IzDVLU-7">
          <mxGeometry relative="1" as="geometry" />
        </mxCell>
        <mxCell id="zsAjYHbP9KHux3IzDVLU-6" value="Realizar acción con las API y almacenar los datos" style="rounded=0;whiteSpace=wrap;html=1;" vertex="1" parent="1">
          <mxGeometry x="40" y="620" width="120" height="60" as="geometry" />
        </mxCell>
        <mxCell id="zsAjYHbP9KHux3IzDVLU-8" style="edgeStyle=orthogonalEdgeStyle;rounded=0;orthogonalLoop=1;jettySize=auto;html=1;exitX=0.5;exitY=1;exitDx=0;exitDy=0;entryX=0;entryY=0.5;entryDx=0;entryDy=0;" edge="1" parent="1" source="zsAjYHbP9KHux3IzDVLU-7" target="5ukBIivrScnrmxDE7Drp-21">
          <mxGeometry relative="1" as="geometry" />
        </mxCell>
        <mxCell id="zsAjYHbP9KHux3IzDVLU-7" value="Exportar todos los datos almacenados a un archivo" style="rounded=0;whiteSpace=wrap;html=1;" vertex="1" parent="1">
          <mxGeometry x="40" y="700" width="120" height="60" as="geometry" />
        </mxCell>
        <mxCell id="zsAjYHbP9KHux3IzDVLU-17" style="edgeStyle=orthogonalEdgeStyle;rounded=0;orthogonalLoop=1;jettySize=auto;html=1;exitX=0.5;exitY=1;exitDx=0;exitDy=0;entryX=0;entryY=0.5;entryDx=0;entryDy=0;" edge="1" parent="1" source="zsAjYHbP9KHux3IzDVLU-9" target="5ukBIivrScnrmxDE7Drp-21">
          <mxGeometry relative="1" as="geometry" />
        </mxCell>
        <mxCell id="zsAjYHbP9KHux3IzDVLU-9" value="Exportar los datos almacenados a un archivo" style="rounded=0;whiteSpace=wrap;html=1;" vertex="1" parent="1">
          <mxGeometry x="305" y="480" width="120" height="60" as="geometry" />
        </mxCell>
        <mxCell id="zsAjYHbP9KHux3IzDVLU-16" style="edgeStyle=orthogonalEdgeStyle;rounded=0;orthogonalLoop=1;jettySize=auto;html=1;exitX=0.5;exitY=1;exitDx=0;exitDy=0;entryX=0;entryY=0.5;entryDx=0;entryDy=0;" edge="1" parent="1" source="zsAjYHbP9KHux3IzDVLU-10" target="5ukBIivrScnrmxDE7Drp-21">
          <mxGeometry relative="1" as="geometry" />
        </mxCell>
        <mxCell id="zsAjYHbP9KHux3IzDVLU-10" value="Exportar los datos almacenados a un archivo" style="rounded=0;whiteSpace=wrap;html=1;" vertex="1" parent="1">
          <mxGeometry x="170" y="390" width="120" height="60" as="geometry" />
        </mxCell>
        <mxCell id="zsAjYHbP9KHux3IzDVLU-19" style="edgeStyle=orthogonalEdgeStyle;rounded=0;orthogonalLoop=1;jettySize=auto;html=1;exitX=0.5;exitY=1;exitDx=0;exitDy=0;entryX=0;entryY=0.5;entryDx=0;entryDy=0;" edge="1" parent="1" source="zsAjYHbP9KHux3IzDVLU-11" target="5ukBIivrScnrmxDE7Drp-21">
          <mxGeometry relative="1" as="geometry" />
        </mxCell>
        <mxCell id="zsAjYHbP9KHux3IzDVLU-11" value="Exportar los datos almacenados a un archivo" style="rounded=0;whiteSpace=wrap;html=1;" vertex="1" parent="1">
          <mxGeometry x="440" y="570" width="120" height="60" as="geometry" />
        </mxCell>
        <mxCell id="zsAjYHbP9KHux3IzDVLU-22" style="edgeStyle=orthogonalEdgeStyle;rounded=0;orthogonalLoop=1;jettySize=auto;html=1;exitX=0.5;exitY=1;exitDx=0;exitDy=0;entryX=0;entryY=0.5;entryDx=0;entryDy=0;" edge="1" parent="1" source="zsAjYHbP9KHux3IzDVLU-12" target="5ukBIivrScnrmxDE7Drp-21">
          <mxGeometry relative="1" as="geometry" />
        </mxCell>
        <mxCell id="zsAjYHbP9KHux3IzDVLU-12" value="" style="rounded=0;whiteSpace=wrap;html=1;" vertex="1" parent="1">
          <mxGeometry x="830" y="840" width="120" height="60" as="geometry" />
        </mxCell>
        <mxCell id="zsAjYHbP9KHux3IzDVLU-20" style="edgeStyle=orthogonalEdgeStyle;rounded=0;orthogonalLoop=1;jettySize=auto;html=1;exitX=0.5;exitY=1;exitDx=0;exitDy=0;entryX=0;entryY=0.5;entryDx=0;entryDy=0;" edge="1" parent="1" source="zsAjYHbP9KHux3IzDVLU-13" target="5ukBIivrScnrmxDE7Drp-21">
          <mxGeometry relative="1" as="geometry" />
        </mxCell>
        <mxCell id="zsAjYHbP9KHux3IzDVLU-13" value="Exportar los datos almacenados a un archivo" style="rounded=0;whiteSpace=wrap;html=1;" vertex="1" parent="1">
          <mxGeometry x="570" y="655" width="120" height="60" as="geometry" />
        </mxCell>
        <mxCell id="zsAjYHbP9KHux3IzDVLU-21" style="edgeStyle=orthogonalEdgeStyle;rounded=0;orthogonalLoop=1;jettySize=auto;html=1;exitX=0.5;exitY=1;exitDx=0;exitDy=0;entryX=0;entryY=0.5;entryDx=0;entryDy=0;" edge="1" parent="1" source="zsAjYHbP9KHux3IzDVLU-14" target="5ukBIivrScnrmxDE7Drp-21">
          <mxGeometry relative="1" as="geometry" />
        </mxCell>
        <mxCell id="zsAjYHbP9KHux3IzDVLU-14" value="Exportar los datos almacenados a un archivo" style="rounded=0;whiteSpace=wrap;html=1;" vertex="1" parent="1">
          <mxGeometry x="700" y="750" width="120" height="60" as="geometry" />
        </mxCell>
      </root>
    </mxGraphModel>
  </diagram>
</mxfile>
